<?xml version="1.0" encoding="UTF-8" standalone="no"?>
<svg
   viewBox="0 0 512 512"
   version="1.1"
   id="svg159"
   sodipodi:docname="icon.svg"
   inkscape:version="1.2.1 (9c6d41e, 2022-07-14)"
   inkscape:export-filename="icon.png"
   inkscape:export-xdpi="192"
   inkscape:export-ydpi="192"
   xmlns:inkscape="http://www.inkscape.org/namespaces/inkscape"
   xmlns:sodipodi="http://sodipodi.sourceforge.net/DTD/sodipodi-0.dtd"
   xmlns="http://www.w3.org/2000/svg"
   xmlns:svg="http://www.w3.org/2000/svg">
  <sodipodi:namedview
     id="namedview161"
     pagecolor="#ffffff"
     bordercolor="#000000"
     borderopacity="0.25"
     inkscape:showpageshadow="2"
     inkscape:pageopacity="0.0"
     inkscape:pagecheckerboard="0"
     inkscape:deskcolor="#d1d1d1"
     showgrid="false"
     inkscape:zoom="2.0058594"
     inkscape:cx="230.82376"
     inkscape:cy="259.48978"
     inkscape:window-width="1979"
     inkscape:window-height="1205"
     inkscape:window-x="2233"
     inkscape:window-y="45"
     inkscape:window-maximized="0"
     inkscape:current-layer="svg159" />
  <defs
     id="defs134">
    <style
       id="style132">.cls-1{fill:#ccc;}.cls-2{fill:#ed5167;}.cls-3{fill:#72d3b8;}.cls-4{fill:#55bc9c;}.cls-5{fill:#e8e8e8;}.cls-6{fill:#333538;}</style>
  </defs>
  <title
     id="title136" />
  <rect
     style="fill:#ffffff;stroke:#94a3b8;stroke-width:0;stroke-linecap:round;stroke-linejoin:round;stroke-dasharray:none"
     id="rect1356"
     width="512"
     height="512"
     x="6.7162523e-07"
     y="6.1644658e-07" />
  <g
     data-name="1 funnel"
     id="_1_funnel"
     transform="matrix(0.81110028,0,0,0.81110028,48.358334,48.358334)">
    <path
       class="cls-1"
       d="m 261.25,134.9 v 0 a 76.62,76.62 0 0 1 76.62,76.62 v 211.7 h -76.62 z"
       transform="rotate(45,299.55045,279.05786)"
       id="path138" />
    <path
       class="cls-2"
       d="m 161.87,470.93 75.07,-75.08 a 17.06,17.06 0 0 0 0,-24.14 l -40.19,-40.19 a 17.06,17.06 0 0 0 -24.14,0 l -10.8,10.8 a 91,91 0 0 0 -129.58,0.92 c -34.17,35.14 -34.17,91.69 0,126.83 a 91,91 0 0 0 129.58,0.92 z M 57,447.11 a 57.21,57.21 0 1 1 80.9,0 57.22,57.22 0 0 1 -80.9,0 z"
       id="path140" />
    <rect
       class="cls-3"
       height="253.49001"
       rx="47.610001"
       transform="rotate(180,255.83,141.11)"
       width="344.78"
       x="83.440002"
       y="14.36"
       id="rect142" />
    <path
       class="cls-4"
       d="m 126,184.86 v -87.5 a 40.46,40.46 0 0 0 40.46,-40.45 h 178.77 a 40.44,40.44 0 0 0 40.44,40.45 v 87.5 A 40.44,40.44 0 0 0 345.23,225.3 H 166.44 A 40.46,40.46 0 0 0 126,184.86 Z"
       id="path144" />
    <circle
       class="cls-3"
       cx="255.83"
       cy="141.11"
       r="60.110001"
       id="circle146" />
    <circle
       class="cls-3"
       cx="349.72"
       cy="141.11"
       r="21.879999"
       id="circle148" />
    <circle
       class="cls-3"
       cx="161.94"
       cy="141.11"
       r="21.879999"
       id="circle150" />
    <path
       class="cls-5"
       d="m 174.13,134.9 h 76.62 v 211.71 a 76.62,76.62 0 0 1 -76.62,76.62 v 0 z"
       transform="rotate(135,212.44298,279.06273)"
       id="path152" />
    <path
       class="cls-2"
       d="m 350.19,471 a 91,91 0 0 0 129.58,-0.92 c 34.17,-35.14 34.17,-91.69 0,-126.83 a 91,91 0 0 0 -129.58,-0.92 l -10.8,-10.8 a 17.06,17.06 0 0 0 -24.14,0 l -40.19,40.19 a 17.06,17.06 0 0 0 0,24.14 l 75.07,75.08 z m 23.89,-23.88 a 57.21,57.21 0 1 1 80.9,0 57.2,57.2 0 0 1 -80.9,-0.01 z"
       id="path154" />
    <circle
       class="cls-6"
       cx="256"
       cy="322.62"
       r="20.01"
       id="circle156" />
  </g>
</svg>
